g jinshujialulu_daodan_lod0
v 0.06769665 -0.1114823 -4.768371E-09
v 0.05862707 0.1684835 0.03384837
v 0.06769669 0.1684835 4.202127E-08
v 0.05862703 -0.1114823 0.03384832
v 0.03384838 0.1684835 0.05862707
v 0.03384833 -0.1114824 0.05862702
v 5.401765E-08 0.1684835 0.06769669
v 1.1744E-08 -0.1114823 0.06769665
v 0.058627 -0.1114823 -0.03384837
v 0.05862704 0.1684835 -0.03384832
v 0.0338483 -0.1114823 -0.05862704
v 0.03384835 0.1684835 -0.05862699
v 1.1744E-08 -0.1114823 -0.06769665
v 5.401766E-08 0.1684835 -0.06769661
v 0.04952346 -0.1534575 0.02859237
v 0.05718476 -0.1534575 -1.430511E-08
v 0.02859238 -0.1534575 0.04952345
v 4.573695E-09 -0.1534575 0.05718475
v 0.02859235 -0.1534574 -0.04952349
v 4.5737E-09 -0.1534574 -0.05718477
v 0.04952343 -0.1534575 -0.02859243
v 0.04039797 -0.1931307 -2.413988E-08
v 0.03498567 -0.1931307 0.02019897
v -1.580321E-08 -0.2546966 -4.023314E-08
v 0.02019898 -0.1931307 0.03498566
v -1.580321E-08 -0.2546966 -4.023314E-08
v -2.999089E-09 -0.1931307 0.04039795
v -1.580321E-08 -0.2546966 -4.023314E-08
v -2.999085E-09 -0.1931306 -0.040398
v 0.02019896 -0.1931306 -0.03498571
v -1.580321E-08 -0.2546966 -4.023314E-08
v 0.03498565 -0.1931307 -0.02019904
v -1.580321E-08 -0.2546966 -4.023314E-08
v -1.580321E-08 -0.2546966 -4.023314E-08
v -0.04039797 -0.1931306 -2.413988E-08
v -0.03498568 -0.1931307 0.02019897
v -0.02019899 -0.1931307 0.03498566
v -0.03498566 -0.1931306 -0.02019904
v -0.02019897 -0.1931306 -0.03498571
v -0.05718476 -0.1534575 -1.430511E-08
v -0.04952345 -0.1534574 0.02859237
v -0.06769664 -0.1114823 -4.768371E-09
v -0.05862701 -0.1114823 0.03384832
v -0.05862697 0.1684835 0.03384837
v -0.0676966 0.1684835 4.202127E-08
v -0.03384827 0.1684835 0.05862707
v -0.03384831 -0.1114823 0.05862702
v 5.401765E-08 0.1684835 0.06769669
v 1.1744E-08 -0.1114823 0.06769665
v -0.05862699 -0.1114823 -0.03384837
v -0.05862695 0.1684835 -0.03384832
v -0.03384828 -0.1114823 -0.05862704
v -0.03384824 0.1684835 -0.05862699
v 1.1744E-08 -0.1114823 -0.06769665
v 5.401766E-08 0.1684835 -0.06769661
v -0.02859237 -0.1534574 0.04952345
v 4.573695E-09 -0.1534575 0.05718475
v -0.02859235 -0.1534574 -0.04952349
v 4.5737E-09 -0.1534574 -0.05718477
v -0.04952343 -0.1534574 -0.02859243
v -2.999089E-09 -0.1931307 0.04039795
v -1.580321E-08 -0.2546966 -4.023314E-08
v -2.999085E-09 -0.1931306 -0.040398
v -1.580321E-08 -0.2546966 -4.023314E-08
v 0.06769669 0.1684835 4.202127E-08
v 0.05862707 0.1684835 0.03384837
v 5.401766E-08 0.1684835 -0.06769661
v 0.03384838 0.1684835 0.05862707
v 5.401765E-08 0.1684835 0.06769669
v 0.05862704 0.1684835 -0.03384832
v 0.03384835 0.1684835 -0.05862699
v 3.225769E-08 0.003059874 0.06246269
v -0.01095244 0.1684835 0.05958031
v 5.697677E-08 0.1684835 0.1125305
v 3.225769E-08 0.003059874 0.06246269
v 5.697677E-08 0.1684835 0.1125305
v 0.01095256 0.1684835 0.05958031
v 5.697677E-08 0.1684835 0.1125305
v -0.01095244 0.1684835 0.05958031
v 0.01095256 0.1684835 0.05958031
v -0.0676966 0.1684835 4.202127E-08
v 5.401766E-08 0.1684835 -0.06769661
v -0.05862697 0.1684835 0.03384837
v -0.03384827 0.1684835 0.05862707
v 5.401765E-08 0.1684835 0.06769669
v -0.05862695 0.1684835 -0.03384832
v -0.03384824 0.1684835 -0.05862699
v 1.846499E-08 0.003059874 0.06246265
v -0.01095245 0.1684835 0.05958031
v 4.318408E-08 0.1684834 0.1125305
v 1.846499E-08 0.003059874 0.06246265
v 4.318408E-08 0.1684834 0.1125305
v 0.01095254 0.1684835 0.0595803
v 4.318408E-08 0.1684834 0.1125305
v -0.01095245 0.1684835 0.05958031
v 0.01095254 0.1684835 0.0595803
v 0.06246265 0.003059874 2.652407E-08
v 0.0595803 0.1684835 0.01095256
v 0.1125305 0.1684834 5.871057E-08
v 0.06246265 0.003059874 2.652407E-08
v 0.1125305 0.1684834 5.871057E-08
v 0.05958029 0.1684835 -0.01095244
v 0.1125305 0.1684834 5.871057E-08
v 0.0595803 0.1684835 0.01095256
v 0.05958029 0.1684835 -0.01095244
v 3.415314E-08 0.003059912 -0.06246261
v 0.01095256 0.1684835 -0.05958019
v 5.501352E-08 0.1684835 -0.1125304
v 3.415314E-08 0.003059912 -0.06246261
v 5.501352E-08 0.1684835 -0.1125304
v -0.01095244 0.1684835 -0.05958019
v 5.501352E-08 0.1684835 -0.1125304
v 0.01095256 0.1684835 -0.05958019
v -0.01095244 0.1684835 -0.05958019
v -0.06246261 0.003059902 8.940696E-09
v -0.0595802 0.1684835 -0.01095245
v -0.1125304 0.1684835 4.351139E-08
v -0.06246261 0.003059902 8.940696E-09
v -0.1125304 0.1684835 4.351139E-08
v -0.0595802 0.1684835 0.01095254
v -0.1125304 0.1684835 4.351139E-08
v -0.0595802 0.1684835 -0.01095245
v -0.0595802 0.1684835 0.01095254
vt 0.7460055 0.6088778
vt 0.8191029 0.01439209
vt 0.7460055 0.01439209
vt 0.8191029 0.6088778
vt 0.8917924 0.01439209
vt 0.8917924 0.6088778
vt 0.9642646 0.01439209
vt 0.9642646 0.6088778
vt 0.6724661 0.6088778
vt 0.6724661 0.01439209
vt 0.5997986 0.6088778
vt 0.5997986 0.01439209
vt 0.527351 0.6088778
vt 0.527351 0.01439209
vt 0.8043006 0.705155
vt 0.7460055 0.705155
vt 0.8617731 0.705155
vt 0.9179301 0.705155
vt 0.6303955 0.705155
vt 0.5742712 0.705155
vt 0.6878462 0.705155
vt 0.7460055 0.8014321
vt 0.7894983 0.8014321
vt 0.7460055 0.975928
vt 0.8317537 0.8014321
vt 0.7460055 0.975928
vt 0.8715956 0.8014321
vt 0.7460055 0.975928
vt 0.6211914 0.8014321
vt 0.6609924 0.8014321
vt 0.7460055 0.975928
vt 0.7032263 0.8014321
vt 0.7460055 0.975928
vt 0.7460055 0.975928
vt 0.7460055 0.8014321
vt 0.7894983 0.8014321
vt 0.8317537 0.8014321
vt 0.7032263 0.8014321
vt 0.6609924 0.8014321
vt 0.7460055 0.705155
vt 0.8043006 0.705155
vt 0.7460055 0.6088778
vt 0.8191029 0.6088778
vt 0.8191029 0.01439209
vt 0.7460055 0.01439209
vt 0.8917924 0.01439209
vt 0.8917924 0.6088778
vt 0.9642646 0.01439209
vt 0.9642646 0.6088778
vt 0.6724661 0.6088778
vt 0.6724661 0.01439209
vt 0.5997986 0.6088778
vt 0.5997986 0.01439209
vt 0.527351 0.6088778
vt 0.527351 0.01439209
vt 0.861773 0.705155
vt 0.9179301 0.705155
vt 0.6303955 0.705155
vt 0.5742712 0.705155
vt 0.6878462 0.705155
vt 0.8715956 0.8014321
vt 0.7460055 0.975928
vt 0.6211914 0.8014321
vt 0.7460055 0.975928
vt 0.4584156 0.8171355
vt 0.3804114 0.8419698
vt 0.6237336 0.9751106
vt 0.3252752 0.9024803
vt 0.3077816 0.9751106
vt 0.5383871 0.8346297
vt 0.5988978 0.8897653
vt 0.5009307 0.02317281
vt 0.5009307 0.4914671
vt 0.3477029 0.4914671
vt 0.3262865 0.4844529
vt 0.4771722 0.01539842
vt 0.3262865 0.01539842
vt 0.4305866 0.6019282
vt 0.5123252 0.5507356
vt 0.3538977 0.5507356
vt 0.4584156 0.8171355
vt 0.6237336 0.9751106
vt 0.3804114 0.8419698
vt 0.3252752 0.9024803
vt 0.3077816 0.9751106
vt 0.5383871 0.8346297
vt 0.5988978 0.8897653
vt 0.5009307 0.02317281
vt 0.5009307 0.4914671
vt 0.3477029 0.4914671
vt 0.3262865 0.4844529
vt 0.4771722 0.01539842
vt 0.3262865 0.01539842
vt 0.4305866 0.6019282
vt 0.5123252 0.5507356
vt 0.3538977 0.5507356
vt 0.3263696 0.4836333
vt 0.3263696 0.01533892
vt 0.4795974 0.01533892
vt 0.3262865 0.4844529
vt 0.4771722 0.01539842
vt 0.3262865 0.01539842
vt 0.4305866 0.6019282
vt 0.5123252 0.5507356
vt 0.3538977 0.5507356
vt 0.5009307 0.02317281
vt 0.5009307 0.4914671
vt 0.3477029 0.4914671
vt 0.5010597 0.02238357
vt 0.3501739 0.4914381
vt 0.5010597 0.4914381
vt 0.4305866 0.6019282
vt 0.5123252 0.5507356
vt 0.3538977 0.5507356
vt 0.5009307 0.02317281
vt 0.5009307 0.4914671
vt 0.3477029 0.4914671
vt 0.3262865 0.4844529
vt 0.4771722 0.01539842
vt 0.3262865 0.01539842
vt 0.4305866 0.6019282
vt 0.5123252 0.5507356
vt 0.3538977 0.5507356
vn 0.9927734 -0.1200046 -2.219317E-07
vn 0.8660255 -1.963519E-07 0.4999997
vn 1 -1.379628E-07 -2.001033E-07
vn 0.859767 -0.1200046 0.4963866
vn 0.5 -2.140533E-07 0.8660254
vn 0.4963866 -0.1200047 0.8597669
vn 0 -1.689696E-07 1
vn 0 -0.1200046 0.9927734
vn 0.8597668 -0.1200043 -0.496387
vn 0.8660253 0 -0.5000004
vn 0.4963863 -0.1200043 -0.8597671
vn 0.4999998 0 -0.8660256
vn 0 -0.1200042 -0.9927734
vn 0 1.703198E-07 -1
vn 0.8223734 -0.31348 0.4747972
vn 0.9495949 -0.3134798 -2.943819E-07
vn 0.4747972 -0.3134801 0.8223734
vn -1.391172E-07 -0.31348 0.9495949
vn 0.474797 -0.3134798 -0.8223736
vn 0 -0.3134797 -0.949595
vn 0.822373 -0.3134798 -0.4747979
vn 0.8853192 -0.4649839 -4.36415E-07
vn 0.7667086 -0.4649841 0.4426597
vn -2.930541E-07 -1 -6.614069E-07
vn 0.4426593 -0.4649841 0.7667089
vn -2.930541E-07 -1 -6.614069E-07
vn 0 -0.4649839 0.8853191
vn -2.930541E-07 -1 -6.614069E-07
vn 0 -0.4649836 -0.8853194
vn 0.4426591 -0.4649836 -0.7667093
vn -2.930541E-07 -1 -6.614069E-07
vn 0.7667084 -0.4649837 -0.4426605
vn -2.930541E-07 -1 -6.614069E-07
vn -2.930541E-07 -1 -6.614069E-07
vn -0.8853192 -0.4649836 -7.01735E-07
vn -0.7667091 -0.4649839 0.4426591
vn -0.4426596 -0.4649839 0.7667089
vn -0.766709 -0.4649836 -0.4426599
vn -0.4426594 -0.4649835 -0.7667093
vn -0.9495949 -0.3134798 -2.73266E-07
vn -0.8223733 -0.3134797 0.4747974
vn -0.9927734 -0.1200042 -1.412292E-07
vn -0.859767 -0.1200044 0.4963866
vn -0.8660254 0 0.5000001
vn -1 1.345488E-07 -1.080312E-07
vn -0.4999999 0 0.8660255
vn -0.4963866 -0.1200045 0.859767
vn 0 -1.689696E-07 1
vn 0 -0.1200046 0.9927734
vn -0.8597667 -0.1200042 -0.4963872
vn -0.8660251 2.061248E-07 -0.5000004
vn -0.4963863 -0.1200042 -0.8597671
vn -0.4999996 2.238624E-07 -0.8660256
vn 0 -0.1200042 -0.9927734
vn 0 1.703198E-07 -1
vn -0.4747973 -0.3134798 0.8223733
vn -1.391172E-07 -0.31348 0.9495949
vn -0.4747971 -0.3134796 -0.8223736
vn 0 -0.3134797 -0.949595
vn -0.822373 -0.3134797 -0.4747979
vn 0 -0.4649839 0.8853191
vn -2.930541E-07 -1 -6.614069E-07
vn 0 -0.4649836 -0.8853194
vn -2.930541E-07 -1 -6.614069E-07
vn -3.555341E-07 1 3.555341E-07
vn 2.916346E-07 1 0
vn 1.583095E-07 1 2.797269E-07
vn 2.428341E-07 1 0
vn 0 1 0
vn -1.051504E-07 1 1.821259E-07
vn -1.051504E-06 1 1.821259E-06
vn -0.9774352 -0.06119188 0.2021779
vn -0.9774352 -0.06119188 0.2021779
vn -0.9774352 -0.06119188 0.2021779
vn 0.9774352 -0.06119217 0.202178
vn 0.9774352 -0.06119217 0.2021779
vn 0.9774352 -0.06119217 0.2021779
vn 0 1 0
vn 0 1 0
vn 0 1 0
vn 4.086928E-07 1 1.269435E-07
vn 1.583095E-07 1 2.797269E-07
vn 4.916223E-07 1 0
vn 2.428341E-07 1 0
vn 0 1 0
vn 1.087967E-06 1 7.574175E-07
vn 4.880051E-07 1 -2.817483E-07
vn -0.9774352 -0.06119192 0.2021779
vn -0.9774352 -0.06119192 0.2021779
vn -0.9774352 -0.06119192 0.2021779
vn 0.9774352 -0.06119222 0.2021779
vn 0.9774352 -0.06119222 0.2021779
vn 0.9774352 -0.06119223 0.2021779
vn 0 1 7.204316E-07
vn 0 1 7.204315E-07
vn 0 1 7.204316E-07
vn 0.2021778 -0.06119225 0.9774352
vn 0.2021779 -0.06119225 0.9774352
vn 0.2021778 -0.06119225 0.9774352
vn 0.2021777 -0.06119182 -0.9774352
vn 0.2021777 -0.06119182 -0.9774352
vn 0.2021777 -0.06119182 -0.9774352
vn 1.080647E-06 1 0
vn 1.080647E-06 1 0
vn 1.080647E-06 1 0
vn 0.9774352 -0.06119211 -0.2021779
vn 0.9774352 -0.06119211 -0.2021779
vn 0.9774352 -0.06119212 -0.2021779
vn -0.9774352 -0.06119182 -0.2021778
vn -0.9774352 -0.06119181 -0.2021777
vn -0.9774352 -0.06119181 -0.2021777
vn 1.741473E-06 1 -1.080647E-06
vn 1.741473E-06 1 -1.080647E-06
vn 1.741473E-06 1 -1.080647E-06
vn -0.202178 -0.06119179 -0.9774352
vn -0.2021779 -0.06119179 -0.9774352
vn -0.202178 -0.06119178 -0.9774352
vn -0.202178 -0.06119218 0.9774352
vn -0.202178 -0.06119218 0.9774352
vn -0.202178 -0.06119218 0.9774352
vn -7.204317E-07 1 0
vn -7.204317E-07 1 0
vn -7.204317E-07 1 0
g jinshujialulu_daodan_lod0_0
f 3/3/3 2/2/2 1/1/1
f 4/4/4 1/1/1 2/2/2
f 2/2/2 5/5/5 4/4/4
f 6/6/6 4/4/4 5/5/5
f 5/5/5 7/7/7 6/6/6
f 8/8/8 6/6/6 7/7/7
f 1/1/1 9/9/9 3/3/3
f 10/10/10 3/3/3 9/9/9
f 9/9/9 11/11/11 10/10/10
f 12/12/12 10/10/10 11/11/11
f 11/11/11 13/13/13 12/12/12
f 14/14/14 12/12/12 13/13/13
f 4/4/4 15/15/15 1/1/1
f 16/16/16 1/1/1 15/15/15
f 1/1/1 16/16/16 9/9/9
f 6/6/6 17/17/17 4/4/4
f 15/15/15 4/4/4 17/17/17
f 8/8/8 18/18/18 6/6/6
f 17/17/17 6/6/6 18/18/18
f 11/11/11 19/19/19 13/13/13
f 20/20/20 13/13/13 19/19/19
f 9/9/9 21/21/21 11/11/11
f 19/19/19 11/11/11 21/21/21
f 21/21/21 9/9/9 16/16/16
f 16/16/16 15/15/15 22/22/22
f 23/23/23 22/22/22 15/15/15
f 15/15/15 17/17/17 23/23/23
f 23/23/23 24/24/24 22/22/22
f 25/25/25 23/23/23 17/17/17
f 17/17/17 18/18/18 25/25/25
f 25/25/25 26/26/26 23/23/23
f 27/27/27 25/25/25 18/18/18
f 27/27/27 28/28/28 25/25/25
f 20/20/20 19/19/19 29/29/29
f 30/30/30 29/29/29 19/19/19
f 19/19/19 21/21/21 30/30/30
f 30/30/30 31/31/31 29/29/29
f 32/32/32 30/30/30 21/21/21
f 32/32/32 33/33/33 30/30/30
f 22/22/22 34/34/34 32/32/32
f 21/21/21 16/16/16 32/32/32
f 22/22/22 32/32/32 16/16/16
f 34/34/34 36/36/36 35/35/35
f 33/33/33 37/37/37 36/36/36
f 24/24/24 35/35/35 38/38/38
f 26/26/26 38/38/38 39/39/39
f 35/35/35 36/36/36 40/40/40
f 41/41/41 40/40/40 36/36/36
f 36/36/36 37/37/37 41/41/41
f 40/40/40 41/41/41 42/42/42
f 43/43/43 42/42/42 41/41/41
f 43/43/43 44/44/44 42/42/42
f 45/45/45 42/42/42 44/44/44
f 44/44/44 43/43/43 46/46/46
f 47/47/47 46/46/46 43/43/43
f 46/46/46 47/47/47 48/48/48
f 49/49/49 48/48/48 47/47/47
f 42/42/42 45/45/45 50/50/50
f 42/42/42 50/50/50 40/40/40
f 51/51/51 50/50/50 45/45/45
f 50/50/50 51/51/51 52/52/52
f 53/53/53 52/52/52 51/51/51
f 52/52/52 53/53/53 54/54/54
f 55/55/55 54/54/54 53/53/53
f 47/47/47 43/43/43 56/56/56
f 41/41/41 56/56/56 43/43/43
f 49/49/49 47/47/47 57/57/57
f 56/56/56 57/57/57 47/47/47
f 52/52/52 54/54/54 58/58/58
f 59/59/59 58/58/58 54/54/54
f 50/50/50 52/52/52 60/60/60
f 58/58/58 60/60/60 52/52/52
f 60/60/60 40/40/40 50/50/50
f 57/57/57 56/56/56 61/61/61
f 37/37/37 61/61/61 56/56/56
f 62/62/62 61/61/61 37/37/37
f 56/56/56 41/41/41 37/37/37
f 58/58/58 59/59/59 39/39/39
f 63/63/63 39/39/39 59/59/59
f 64/64/64 39/39/39 63/63/63
f 60/60/60 58/58/58 38/38/38
f 39/39/39 38/38/38 58/58/58
f 40/40/40 60/60/60 35/35/35
f 38/38/38 35/35/35 60/60/60
f 67/67/67 66/66/66 65/65/65
f 67/67/67 68/68/68 66/66/66
f 67/67/67 69/69/69 68/68/68
f 67/67/67 65/65/65 70/70/70
f 67/67/67 70/70/70 71/71/71
f 74/74/74 73/73/73 72/72/72
f 77/77/77 76/76/76 75/75/75
f 80/80/80 79/79/79 78/78/78
f 83/83/83 82/82/82 81/81/81
f 84/84/84 82/82/82 83/83/83
f 85/85/85 82/82/82 84/84/84
f 81/81/81 82/82/82 86/86/86
f 86/86/86 82/82/82 87/87/87
f 90/90/90 89/89/89 88/88/88
f 93/93/93 92/92/92 91/91/91
f 96/96/96 95/95/95 94/94/94
f 99/99/99 98/98/98 97/97/97
f 102/102/102 101/101/101 100/100/100
f 105/105/105 104/104/104 103/103/103
f 108/108/108 107/107/107 106/106/106
f 111/111/111 110/110/110 109/109/109
f 114/114/114 113/113/113 112/112/112
f 117/117/117 116/116/116 115/115/115
f 120/120/120 119/119/119 118/118/118
f 123/123/123 122/122/122 121/121/121
