g body_2
v 1.221043 0.793496 1.634798
v 1.221043 0.797998 1.590277
v 1.232078 0.7894239 1.603675
v 1.238761 0.7894239 1.611677
v 1.210009 0.7894239 1.603675
v 1.203325 0.7894239 1.611677
v 1.195031 0.793513 1.627152
v 1.193509 0.793477 1.641871
v 1.199989 0.793456 1.64904
v 1.209935 0.793447 1.650434
v 1.221043 0.7934089 1.645473
v 1.232152 0.793447 1.650434
v 1.242098 0.793456 1.64904
v 1.248578 0.793477 1.64187
v 1.247056 0.793513 1.627152
v 1.221043 0.785352 1.634798
v 1.221043 0.78085 1.590277
v 1.210009 0.7894239 1.603675
v 1.203325 0.7894239 1.611677
v 1.232078 0.7894239 1.603675
v 1.238761 0.7894239 1.611677
v 1.247056 0.785334 1.627152
v 1.248578 0.785371 1.64187
v 1.242098 0.785392 1.64904
v 1.232152 0.7854 1.650434
v 1.221043 0.785439 1.645473
v 1.209935 0.7854 1.650434
v 1.199989 0.785392 1.64904
v 1.193509 0.785371 1.641871
v 1.195031 0.785334 1.627152
v 1.232152 0.7854 1.650434
v 1.242098 0.793456 1.64904
v 1.242098 0.785392 1.64904
v 1.232152 0.793447 1.650434
v 1.221043 0.785439 1.645473
v 1.221043 0.7934089 1.645473
v 1.248578 0.785371 1.64187
v 1.248578 0.793477 1.64187
v 1.209935 0.7854 1.650434
v 1.199989 0.793456 1.64904
v 1.209935 0.793447 1.650434
v 1.199989 0.785392 1.64904
v 1.221043 0.7934089 1.645473
v 1.221043 0.785439 1.645473
v 1.193509 0.785371 1.641871
v 1.193509 0.793477 1.641871
v 1.247056 0.793513 1.627152
v 1.238761 0.7894239 1.611677
v 1.247056 0.785334 1.627152
v 1.248578 0.793477 1.64187
v 1.248578 0.785371 1.64187
v 1.195031 0.785334 1.627152
v 1.203325 0.7894239 1.611677
v 1.195031 0.793513 1.627152
v 1.193509 0.793477 1.641871
v 1.193509 0.785371 1.641871
v 1.221044 0.7894239 0.577645
v 1.260054 0.7894239 0.6421499
v 1.221044 0.80057 0.685099
v 1.260054 0.7894239 0.6421499
v 1.221044 0.7894239 0.577645
v 1.221044 0.7782779 0.685099
v 1.221043 0.80057 1.327764
v 1.206699 0.7894239 1.358265
v 1.201282 0.7894239 1.320971
v 1.221043 0.80057 1.358265
v 1.221044 0.7782779 0.685099
v 1.221044 0.7894239 0.577645
v 1.182033 0.7894239 0.6421499
v 1.221044 0.80057 0.685099
v 1.260054 0.7894239 1.283678
v 1.221043 0.80057 1.297262
v 1.260054 0.7894239 0.6421499
v 1.260054 0.7894239 1.283678
v 1.221044 0.7782779 0.685099
v 1.221043 0.7782779 1.297262
v 1.260054 0.7894239 0.6421499
v 1.221044 0.80057 0.685099
v 1.182033 0.7894239 0.6421499
v 1.221044 0.7894239 0.577645
v 1.182033 0.7894239 1.283678
v 1.221044 0.7782779 0.685099
v 1.182033 0.7894239 0.6421499
v 1.221043 0.7782779 1.297262
v 1.221043 0.80057 1.297262
v 1.182033 0.7894239 0.6421499
v 1.221044 0.80057 0.685099
v 1.182033 0.7894239 1.283678
v 1.221043 0.80057 1.327764
v 1.260054 0.7894239 1.283678
v 1.240805 0.7894239 1.320971
v 1.221043 0.80057 1.297262
v 1.260054 0.7894239 1.283678
v 1.221043 0.7782779 1.327764
v 1.240805 0.7894239 1.320971
v 1.221043 0.7782779 1.297262
v 1.201282 0.7894239 1.320971
v 1.221043 0.7782779 1.297262
v 1.182033 0.7894239 1.283678
v 1.221043 0.7782779 1.327764
v 1.221043 0.80057 1.327764
v 1.182033 0.7894239 1.283678
v 1.221043 0.80057 1.297262
v 1.201282 0.7894239 1.320971
v 1.235387 0.7894239 1.358265
v 1.221043 0.80057 1.327764
v 1.240805 0.7894239 1.320971
v 1.221043 0.80057 1.358265
v 1.221043 0.7782779 1.358265
v 1.240805 0.7894239 1.320971
v 1.221043 0.7782779 1.327764
v 1.235387 0.7894239 1.358265
v 1.221043 0.7782779 1.358265
v 1.201282 0.7894239 1.320971
v 1.206699 0.7894239 1.358265
v 1.221043 0.7782779 1.327764
v 1.221043 0.822805 1.374689
v 1.282658 0.757063 1.374689
v 1.221043 0.756042 1.374689
v 1.282658 0.821785 1.374689
v 1.29689 0.759095 1.372134
v 1.29689 0.819753 1.372134
v 1.306284 0.817088 1.364424
v 1.306284 0.76176 1.364424
v 1.314286 0.809944 1.350468
v 1.314286 0.768904 1.350468
v 1.159429 0.757063 1.374689
v 1.159429 0.821785 1.374689
v 1.150711 0.819753 1.375682
v 1.150711 0.759095 1.375682
v 1.145144 0.817088 1.380116
v 1.145144 0.76176 1.380116
v 1.134221 0.768904 1.388367
v 1.134221 0.809944 1.388367
v 1.282658 0.821785 1.351602
v 1.221043 0.822805 1.374689
v 1.221043 0.822805 1.351602
v 1.282658 0.821785 1.374689
v 1.29689 0.819753 1.372134
v 1.291375 0.819753 1.350609
v 1.306284 0.817088 1.364424
v 1.296943 0.817088 1.346175
v 1.314286 0.809944 1.350468
v 1.307865 0.809944 1.337924
v 1.159429 0.821785 1.374689
v 1.159429 0.821785 1.351602
v 1.145197 0.819753 1.354157
v 1.150711 0.819753 1.375682
v 1.135803 0.817088 1.361867
v 1.145144 0.817088 1.380116
v 1.134221 0.809944 1.388367
v 1.1278 0.809944 1.375823
v 1.282658 0.757063 1.374689
v 1.221043 0.756042 1.351602
v 1.221043 0.756042 1.374689
v 1.282658 0.757063 1.351602
v 1.291375 0.759095 1.350609
v 1.29689 0.759095 1.372134
v 1.306284 0.76176 1.364424
v 1.296943 0.76176 1.346175
v 1.314286 0.768904 1.350468
v 1.307865 0.768904 1.337924
v 1.159429 0.757063 1.374689
v 1.159429 0.757063 1.351602
v 1.150711 0.759095 1.375682
v 1.145197 0.759095 1.354157
v 1.145144 0.76176 1.380116
v 1.135803 0.76176 1.361867
v 1.1278 0.768904 1.375823
v 1.134221 0.768904 1.388367
v 1.314286 0.809944 1.350468
v 1.307865 0.768904 1.337924
v 1.314286 0.768904 1.350468
v 1.307865 0.809944 1.337924
v 1.282658 0.821785 1.351602
v 1.221043 0.756042 1.351602
v 1.282658 0.757063 1.351602
v 1.221043 0.822805 1.351602
v 1.291375 0.759095 1.350609
v 1.291375 0.819753 1.350609
v 1.296943 0.76176 1.346175
v 1.296943 0.817088 1.346175
v 1.307865 0.809944 1.337924
v 1.307865 0.768904 1.337924
v 1.159429 0.757063 1.351602
v 1.159429 0.821785 1.351602
v 1.145197 0.819753 1.354157
v 1.145197 0.759095 1.354157
v 1.135803 0.817088 1.361867
v 1.135803 0.76176 1.361867
v 1.1278 0.768904 1.375823
v 1.1278 0.809944 1.375823
v 1.134221 0.768904 1.388367
v 1.1278 0.809944 1.375823
v 1.134221 0.809944 1.388367
v 1.1278 0.768904 1.375823
v 1.221043 0.802538 1.537545
v 1.24616 0.7894239 1.477785
v 1.239608 0.7894239 1.537544
v 1.221043 0.805786 1.477785
v 1.195927 0.7894239 1.477784
v 1.202479 0.7894239 1.537544
v 1.248007 0.7894239 1.418025
v 1.221043 0.807976 1.418025
v 1.19408 0.7894239 1.418025
v 1.221043 0.809329 1.370156
v 1.244072 0.7894239 1.370156
v 1.198015 0.7894239 1.370156
v 1.232078 0.7894239 1.603675
v 1.221043 0.797998 1.590277
v 1.210009 0.7894239 1.603675
v 1.195927 0.7894239 1.477784
v 1.221043 0.77631 1.537545
v 1.221043 0.773062 1.477785
v 1.202479 0.7894239 1.537544
v 1.239608 0.7894239 1.537544
v 1.24616 0.7894239 1.477785
v 1.19408 0.7894239 1.418025
v 1.221043 0.7708719 1.418025
v 1.248007 0.7894239 1.418025
v 1.198015 0.7894239 1.370156
v 1.221043 0.769518 1.370156
v 1.244072 0.7894239 1.370156
v 1.221043 0.78085 1.590277
v 1.210009 0.7894239 1.603675
v 1.232078 0.7894239 1.603675
vt 0.5016 0.6414
vt 0.5016 0.6306
vt 0.5044 0.6338
vt 0.5061 0.6358
vt 0.4988 0.6338
vt 0.4972 0.6358
vt 0.4951 0.6396
vt 0.4947 0.6432
vt 0.4963 0.6449
vt 0.4988 0.6453
vt 0.5016 0.6441
vt 0.5044 0.6453
vt 0.5069 0.6449
vt 0.5086 0.6432
vt 0.5082 0.6396
vt 0.5016 0.6414
vt 0.5016 0.6306
vt 0.4988 0.6338
vt 0.4972 0.6358
vt 0.5044 0.6338
vt 0.5061 0.6358
vt 0.5082 0.6396
vt 0.5086 0.6432
vt 0.5069 0.6449
vt 0.5044 0.6453
vt 0.5016 0.6441
vt 0.4988 0.6453
vt 0.4963 0.6449
vt 0.4947 0.6432
vt 0.4951 0.6396
vt 0.5044 0.6453
vt 0.5069 0.6449
vt 0.5069 0.6449
vt 0.5044 0.6453
vt 0.5016 0.6441
vt 0.5016 0.6441
vt 0.5086 0.6432
vt 0.5086 0.6432
vt 0.4988 0.6453
vt 0.4963 0.6449
vt 0.4988 0.6453
vt 0.4963 0.6449
vt 0.5016 0.6441
vt 0.5016 0.6441
vt 0.4947 0.6432
vt 0.4947 0.6432
vt 0.5082 0.6396
vt 0.5061 0.6358
vt 0.5082 0.6396
vt 0.5086 0.6432
vt 0.5086 0.6432
vt 0.4951 0.6396
vt 0.4972 0.6358
vt 0.4951 0.6396
vt 0.4947 0.6432
vt 0.4947 0.6432
vt 0.3096 0.6616
vt 0.3313 0.6747
vt 0.3458 0.6616
vt 0.3313 0.6747
vt 0.3096 0.6616
vt 0.3458 0.6616
vt 0.5621 0.6616
vt 0.5724 0.6555
vt 0.5598 0.6555
vt 0.5724 0.6616
vt 0.3458 0.6616
vt 0.3096 0.6616
vt 0.3313 0.6484
vt 0.3458 0.6616
vt 0.5473 0.6747
vt 0.5518 0.6616
vt 0.3313 0.6747
vt 0.5473 0.6747
vt 0.3458 0.6616
vt 0.5518 0.6616
vt 0.3313 0.6747
vt 0.3458 0.6616
vt 0.3313 0.6484
vt 0.3096 0.6616
vt 0.5473 0.6484
vt 0.3458 0.6616
vt 0.3313 0.6484
vt 0.5518 0.6616
vt 0.5518 0.6616
vt 0.3313 0.6484
vt 0.3458 0.6616
vt 0.5473 0.6484
vt 0.5621 0.6616
vt 0.5473 0.6747
vt 0.5598 0.6678
vt 0.5518 0.6616
vt 0.5473 0.6747
vt 0.5621 0.6616
vt 0.5598 0.6678
vt 0.5518 0.6616
vt 0.5598 0.6555
vt 0.5518 0.6616
vt 0.5473 0.6484
vt 0.5621 0.6616
vt 0.5621 0.6616
vt 0.5473 0.6484
vt 0.5518 0.6616
vt 0.5598 0.6555
vt 0.5724 0.6678
vt 0.5621 0.6616
vt 0.5598 0.6678
vt 0.5724 0.6616
vt 0.5724 0.6616
vt 0.5598 0.6678
vt 0.5621 0.6616
vt 0.5724 0.6678
vt 0.5724 0.6616
vt 0.5598 0.6555
vt 0.5724 0.6555
vt 0.5621 0.6616
vt 0.3973 0.6453
vt 0.383 0.6272
vt 0.3973 0.6272
vt 0.383 0.6453
vt 0.3796 0.6272
vt 0.3796 0.6453
vt 0.3772 0.6453
vt 0.3772 0.6272
vt 0.3733 0.6453
vt 0.3733 0.6272
vt 0.4117 0.6272
vt 0.4117 0.6453
vt 0.4137 0.6453
vt 0.4137 0.6272
vt 0.4152 0.6453
vt 0.4152 0.6272
vt 0.4189 0.6272
vt 0.4189 0.6453
vt 0.4631 0.6396
vt 0.4488 0.6435
vt 0.4488 0.6396
vt 0.4631 0.6435
vt 0.4658 0.6435
vt 0.4658 0.6396
vt 0.4677 0.6435
vt 0.4677 0.6396
vt 0.4719 0.6435
vt 0.4719 0.6396
vt 0.4326 0.6435
vt 0.4326 0.6396
vt 0.4298 0.6396
vt 0.4298 0.6435
vt 0.4276 0.6396
vt 0.4276 0.6435
vt 0.4248 0.6435
vt 0.4248 0.6396
vt 0.4631 0.6252
vt 0.4488 0.6276
vt 0.4488 0.6252
vt 0.4631 0.6276
vt 0.4658 0.6276
vt 0.4658 0.6252
vt 0.4677 0.6252
vt 0.4677 0.6276
vt 0.4719 0.6252
vt 0.4719 0.6276
vt 0.4326 0.6252
vt 0.4326 0.6276
vt 0.4298 0.6252
vt 0.4298 0.6276
vt 0.4276 0.6252
vt 0.4276 0.6276
vt 0.4248 0.6276
vt 0.4248 0.6252
vt 0.4742 0.6396
vt 0.4719 0.6276
vt 0.4742 0.6276
vt 0.4719 0.6396
vt 0.4631 0.6396
vt 0.4488 0.6276
vt 0.4631 0.6276
vt 0.4488 0.6396
vt 0.4658 0.6276
vt 0.4658 0.6396
vt 0.4677 0.6276
vt 0.4677 0.6396
vt 0.4719 0.6396
vt 0.4719 0.6276
vt 0.4326 0.6276
vt 0.4326 0.6396
vt 0.4298 0.6396
vt 0.4298 0.6276
vt 0.4276 0.6396
vt 0.4276 0.6276
vt 0.4248 0.6276
vt 0.4248 0.6396
vt 0.4226 0.6276
vt 0.4248 0.6396
vt 0.4226 0.6396
vt 0.4248 0.6276
vt 0.5163 0.6905
vt 0.5364 0.682
vt 0.5163 0.6842
vt 0.5364 0.6905
vt 0.5364 0.6989
vt 0.5163 0.6967
vt 0.5565 0.6814
vt 0.5565 0.6905
vt 0.5565 0.6996
vt 0.5726 0.6905
vt 0.5726 0.6827
vt 0.5726 0.6982
vt 0.494 0.6867
vt 0.4985 0.6905
vt 0.494 0.6942
vt 0.5364 0.6989
vt 0.5163 0.6905
vt 0.5364 0.6905
vt 0.5163 0.6967
vt 0.5163 0.6842
vt 0.5364 0.682
vt 0.5565 0.6996
vt 0.5565 0.6905
vt 0.5565 0.6814
vt 0.5726 0.6982
vt 0.5726 0.6905
vt 0.5726 0.6827
vt 0.4985 0.6905
vt 0.494 0.6942
vt 0.494 0.6867
vn 0 0.9991633 -0.0408985
vn 0 0.9962522 0.08649585
vn 0.6359954 0.7696945 0.05549961
vn 0.04160201 0.9889479 -0.1423069
vn -0.6359954 0.7696945 0.05549961
vn -0.04160201 0.9889479 -0.1423069
vn 0.03290066 0.9934198 -0.1097022
vn 0 0.9999964 0.002699991
vn 0.000199999 0.9999952 0.003099985
vn 0.00179998 0.9999887 0.00439995
vn 0 0.9999664 0.008199724
vn -0.00179998 0.9999887 0.00439995
vn -0.000199999 0.9999952 0.003099985
vn 0 0.9999964 0.002699991
vn -0.03290066 0.9934198 -0.1097022
vn 0 -0.9991633 -0.0408985
vn 0 -0.9949267 0.1006027
vn -0.4067928 -0.9131838 0.02479956
vn -0.04160201 -0.9889479 -0.1423069
vn 0.4067928 -0.9131838 0.02479956
vn 0.04160201 -0.9889479 -0.1423069
vn -0.03290066 -0.9934198 -0.1097022
vn 0 -0.9999964 0.002699991
vn -0.000199999 -0.9999952 0.003099985
vn -0.00179998 -0.9999887 0.00439995
vn 0 -0.9999664 0.008199724
vn 0.00179998 -0.9999887 0.00439995
vn 0.000199999 -0.9999952 0.003099985
vn 0 -0.9999964 0.002699991
vn 0.03290066 -0.9934198 -0.1097022
vn -0.1396011 0 0.9902079
vn 0.4688018 0 0.8833034
vn 0.4688018 0 0.8833034
vn -0.1396011 0 0.9902079
vn -0.4077893 0 0.9130761
vn -0.4077893 0 0.9130761
vn 0.7419053 0 0.6705047
vn 0.7419053 0 0.6705047
vn 0.1396011 0 0.9902079
vn -0.4688018 0 0.8833034
vn 0.1396011 0 0.9902079
vn -0.4688018 0 0.8833034
vn 0.4077893 0 0.9130761
vn 0.4077893 0 0.9130761
vn -0.7419053 0 0.6705047
vn -0.7419053 0 0.6705047
vn 0.9604334 0 -0.2785097
vn 0.8813878 0 -0.4723935
vn 0.9604334 0 -0.2785097
vn 0.9946918 0 -0.1028991
vn 0.9946918 0 -0.1028991
vn -0.9604334 0 -0.2785097
vn -0.8813878 0 -0.4723935
vn -0.9604334 0 -0.2785097
vn -0.9946918 0 -0.1028991
vn -0.9946918 0 -0.1028991
vn 0.1681988 0.9804929 -0.1016993
vn 0.1681988 0.9804929 -0.1016993
vn 0.1681988 0.9804929 -0.1016993
vn 0.1681988 -0.9804929 -0.1016993
vn 0.1681988 -0.9804929 -0.1016993
vn 0.1681988 -0.9804929 -0.1016993
vn -0.5527033 0.8322051 0.04420027
vn -0.5527033 0.8322051 0.04420027
vn -0.5527033 0.8322051 0.04420027
vn -0.5527033 0.8322051 0.04420027
vn -0.1681988 -0.9804929 -0.1016993
vn -0.1681988 -0.9804929 -0.1016993
vn -0.1681988 -0.9804929 -0.1016993
vn 0.2747079 0.9615277 0
vn 0.2747079 0.9615277 0
vn 0.2747079 0.9615277 0
vn 0.2747079 0.9615277 0
vn 0.2747079 -0.9615277 0
vn 0.2747079 -0.9615277 0
vn 0.2747079 -0.9615277 0
vn 0.2747079 -0.9615277 0
vn -0.1681988 0.9804929 -0.1016993
vn -0.1681988 0.9804929 -0.1016993
vn -0.1681988 0.9804929 -0.1016993
vn -0.2747079 -0.9615277 0
vn -0.2747079 -0.9615277 0
vn -0.2747079 -0.9615277 0
vn -0.2747079 -0.9615277 0
vn -0.2747079 0.9615277 0
vn -0.2747079 0.9615277 0
vn -0.2747079 0.9615277 0
vn -0.2747079 0.9615277 0
vn 0.3854998 0.9161995 0.1093999
vn 0.3854998 0.9161995 0.1093999
vn 0.3854998 0.9161995 0.1093999
vn 0.3854998 0.9161995 0.1093999
vn 0.3854998 -0.9161995 0.1093999
vn 0.3854998 -0.9161995 0.1093999
vn 0.3854998 -0.9161995 0.1093999
vn 0.3854998 -0.9161995 0.1093999
vn -0.3854998 -0.9161995 0.1093999
vn -0.3854998 -0.9161995 0.1093999
vn -0.3854998 -0.9161995 0.1093999
vn -0.3854998 -0.9161995 0.1093999
vn -0.3854998 0.9161995 0.1093999
vn -0.3854998 0.9161995 0.1093999
vn -0.3854998 0.9161995 0.1093999
vn -0.3854998 0.9161995 0.1093999
vn 0.5527033 0.8322051 0.04420027
vn 0.5527033 0.8322051 0.04420027
vn 0.5527033 0.8322051 0.04420027
vn 0.5527033 0.8322051 0.04420027
vn 0.5527033 -0.8322051 0.04420027
vn 0.5527033 -0.8322051 0.04420027
vn 0.5527033 -0.8322051 0.04420027
vn 0.5527033 -0.8322051 0.04420027
vn -0.5527033 -0.8322051 0.04420027
vn -0.5527033 -0.8322051 0.04420027
vn -0.5527033 -0.8322051 0.04420027
vn -0.5527033 -0.8322051 0.04420027
vn 0 0 1
vn 0.08409642 0 0.9964576
vn 0 0 1
vn 0.08409642 0 0.9964576
vn 0.3914921 0 0.9201815
vn 0.3914921 0 0.9201815
vn 0.7373782 0 0.6754801
vn 0.7373782 0 0.6754801
vn 0.8674728 0 0.4974844
vn 0.8674728 0 0.4974844
vn 0.05189753 0 0.9986524
vn 0.05189753 0 0.9986524
vn 0.3308002 0 0.9437008
vn 0.3308002 0 0.9437008
vn 0.6156907 0 0.787988
vn 0.6156907 0 0.787988
vn 0.6027963 0 0.7978951
vn 0.6027963 0 0.7978951
vn 0.09680416 0.9952427 -0.01100047
vn 0 1 0
vn 0 1 0
vn 0.08960247 0.9959274 -0.01000028
vn 0.2111091 0.9759418 -0.05450233
vn 0.2204025 0.9734109 -0.0624007
vn 0.3212838 0.9363527 -0.1414929
vn 0.3499048 0.9225126 -0.1629022
vn 0.4168066 0.8836141 -0.2133034
vn 0.4168066 0.8836141 -0.2133034
vn -0.09680416 0.9952427 0.01100047
vn -0.08960247 0.9959274 0.01000028
vn -0.2111091 0.9759418 0.05450233
vn -0.2204025 0.9734109 0.0624007
vn -0.3212838 0.9363527 0.1414929
vn -0.3499048 0.9225126 0.1629022
vn -0.4168066 0.8836141 0.2133034
vn -0.4168066 0.8836141 0.2133034
vn 0.08960247 -0.9959274 -0.01000028
vn 0 -1 0
vn 0 -1 0
vn 0.09680416 -0.9952427 -0.01100047
vn 0.2204025 -0.9734109 -0.0624007
vn 0.2111091 -0.9759418 -0.05450233
vn 0.3212838 -0.9363527 -0.1414929
vn 0.3499048 -0.9225126 -0.1629022
vn 0.4168066 -0.8836141 -0.2133034
vn 0.4168066 -0.8836141 -0.2133034
vn -0.09680416 -0.9952427 0.01100047
vn -0.08960247 -0.9959274 0.01000028
vn -0.2204025 -0.9734109 0.0624007
vn -0.2111091 -0.9759418 0.05450233
vn -0.3499048 -0.9225126 0.1629022
vn -0.3211941 -0.9363828 0.1414974
vn -0.4168066 -0.8836141 0.2133034
vn -0.4168066 -0.8836141 0.2133034
vn 0.8901878 0 -0.4555937
vn 0.8901878 0 -0.4555937
vn 0.8901878 0 -0.4555937
vn 0.8901878 0 -0.4555937
vn -0.05189753 0 -0.9986524
vn 0 0 -1
vn -0.05189753 0 -0.9986524
vn 0 0 -1
vn -0.3308002 0 -0.9437008
vn -0.3308002 0 -0.9437008
vn -0.6156907 0 -0.787988
vn -0.6156907 0 -0.787988
vn -0.6027963 0 -0.7978951
vn -0.6027963 0 -0.7978951
vn -0.08409642 0 -0.9964576
vn -0.08409642 0 -0.9964576
vn -0.3914921 0 -0.9201815
vn -0.3914921 0 -0.9201815
vn -0.7373782 0 -0.6754801
vn -0.7373782 0 -0.6754801
vn -0.8674728 0 -0.4974844
vn -0.8674728 0 -0.4974844
vn -0.8901878 0 0.4555937
vn -0.8901878 0 0.4555937
vn -0.8901878 0 0.4555937
vn -0.8901878 0 0.4555937
vn 0 0.9973541 0.07269666
vn 0.997699 0 0.06779993
vn 0.994419 0 0.105502
vn 0 0.9989367 0.04610169
vn -0.997699 0 0.06779993
vn -0.994419 0 0.105502
vn 0.9999596 0 0.008999635
vn 0 0.9999826 0.005899897
vn -0.9999596 0 0.008999635
vn 0 0.9998468 -0.01750082
vn 0.9997423 0 -0.02270096
vn -0.9997423 0 -0.02270096
vn 0.6359954 0.7696945 0.05549961
vn 0 0.9962522 0.08649585
vn -0.6359954 0.7696945 0.05549961
vn -0.997699 0 0.06779993
vn 0 -0.9973541 0.07269666
vn 0 -0.9989367 0.04610169
vn -0.994419 0 0.105502
vn 0.994419 0 0.105502
vn 0.997699 0 0.06779993
vn -0.9999596 0 0.008999635
vn 0 -0.9999826 0.005899897
vn 0.9999596 0 0.008999635
vn -0.9997423 0 -0.02270096
vn 0 -0.9998468 -0.01750082
vn 0.9997423 0 -0.02270096
vn 0 -0.996632 0.08200263
vn -0.6359954 0.7696945 0.05549961
vn 0.6359954 0.7696945 0.05549961
g body_2_0
f 3/3/3 2/2/2 1/1/1
f 4/4/4 3/3/3 1/1/1
f 2/2/2 5/5/5 1/1/1
f 1/1/1 5/5/5 6/6/6
f 1/1/1 6/6/6 7/7/7
f 8/8/8 1/1/1 7/7/7
f 8/8/8 9/9/9 1/1/1
f 10/10/10 1/1/1 9/9/9
f 11/11/11 1/1/1 10/10/10
f 11/11/11 12/12/12 1/1/1
f 12/12/12 13/13/13 1/1/1
f 13/13/13 14/14/14 1/1/1
f 14/14/14 15/15/15 1/1/1
f 4/4/4 1/1/1 15/15/15
f 18/18/18 17/17/17 16/16/16
f 19/19/19 18/18/18 16/16/16
f 17/17/17 20/20/20 16/16/16
f 16/16/16 20/20/20 21/21/21
f 16/16/16 21/21/21 22/22/22
f 23/23/23 16/16/16 22/22/22
f 23/23/23 24/24/24 16/16/16
f 25/25/25 16/16/16 24/24/24
f 26/26/26 16/16/16 25/25/25
f 26/26/26 27/27/27 16/16/16
f 27/27/27 28/28/28 16/16/16
f 28/28/28 29/29/29 16/16/16
f 29/29/29 30/30/30 16/16/16
f 19/19/19 16/16/16 30/30/30
f 33/33/33 32/32/32 31/31/31
f 34/34/34 31/31/31 32/32/32
f 31/31/31 34/34/34 35/35/35
f 36/36/36 35/35/35 34/34/34
f 33/33/33 37/37/37 32/32/32
f 38/38/38 32/32/32 37/37/37
f 41/41/41 40/40/40 39/39/39
f 42/42/42 39/39/39 40/40/40
f 41/41/41 39/39/39 43/43/43
f 44/44/44 43/43/43 39/39/39
f 42/42/42 40/40/40 45/45/45
f 46/46/46 45/45/45 40/40/40
f 49/49/49 48/48/48 47/47/47
f 47/47/47 50/50/50 49/49/49
f 51/51/51 49/49/49 50/50/50
f 54/54/54 53/53/53 52/52/52
f 54/54/54 52/52/52 55/55/55
f 56/56/56 55/55/55 52/52/52
f 59/59/59 58/58/58 57/57/57
f 62/62/62 61/61/61 60/60/60
f 65/65/65 64/64/64 63/63/63
f 66/66/66 63/63/63 64/64/64
f 69/69/69 68/68/68 67/67/67
f 72/72/72 71/71/71 70/70/70
f 73/73/73 70/70/70 71/71/71
f 76/76/76 75/75/75 74/74/74
f 77/77/77 74/74/74 75/75/75
f 80/80/80 79/79/79 78/78/78
f 83/83/83 82/82/82 81/81/81
f 84/84/84 81/81/81 82/82/82
f 87/87/87 86/86/86 85/85/85
f 88/88/88 85/85/85 86/86/86
f 91/91/91 90/90/90 89/89/89
f 92/92/92 89/89/89 90/90/90
f 95/95/95 94/94/94 93/93/93
f 96/96/96 93/93/93 94/94/94
f 99/99/99 98/98/98 97/97/97
f 100/100/100 97/97/97 98/98/98
f 103/103/103 102/102/102 101/101/101
f 104/104/104 101/101/101 102/102/102
f 107/107/107 106/106/106 105/105/105
f 108/108/108 105/105/105 106/106/106
f 111/111/111 110/110/110 109/109/109
f 112/112/112 109/109/109 110/110/110
f 115/115/115 114/114/114 113/113/113
f 116/116/116 113/113/113 114/114/114
f 119/119/119 118/118/118 117/117/117
f 120/120/120 117/117/117 118/118/118
f 118/118/118 121/121/121 120/120/120
f 122/122/122 120/120/120 121/121/121
f 122/122/122 121/121/121 123/123/123
f 124/124/124 123/123/123 121/121/121
f 123/123/123 124/124/124 125/125/125
f 126/126/126 125/125/125 124/124/124
f 119/119/119 117/117/117 127/127/127
f 128/128/128 127/127/127 117/117/117
f 128/128/128 129/129/129 127/127/127
f 130/130/130 127/127/127 129/129/129
f 129/129/129 131/131/131 130/130/130
f 132/132/132 130/130/130 131/131/131
f 132/132/132 131/131/131 133/133/133
f 134/134/134 133/133/133 131/131/131
f 137/137/137 136/136/136 135/135/135
f 138/138/138 135/135/135 136/136/136
f 138/138/138 139/139/139 135/135/135
f 140/140/140 135/135/135 139/139/139
f 139/139/139 141/141/141 140/140/140
f 142/142/142 140/140/140 141/141/141
f 141/141/141 143/143/143 142/142/142
f 144/144/144 142/142/142 143/143/143
f 136/136/136 137/137/137 145/145/145
f 146/146/146 145/145/145 137/137/137
f 146/146/146 147/147/147 145/145/145
f 148/148/148 145/145/145 147/147/147
f 147/147/147 149/149/149 148/148/148
f 150/150/150 148/148/148 149/149/149
f 150/150/150 149/149/149 151/151/151
f 152/152/152 151/151/151 149/149/149
f 155/155/155 154/154/154 153/153/153
f 156/156/156 153/153/153 154/154/154
f 156/156/156 157/157/157 153/153/153
f 158/158/158 153/153/153 157/157/157
f 158/158/158 157/157/157 159/159/159
f 160/160/160 159/159/159 157/157/157
f 159/159/159 160/160/160 161/161/161
f 162/162/162 161/161/161 160/160/160
f 155/155/155 163/163/163 154/154/154
f 164/164/164 154/154/154 163/163/163
f 163/163/163 165/165/165 164/164/164
f 166/166/166 164/164/164 165/165/165
f 165/165/165 167/167/167 166/166/166
f 168/168/168 166/166/166 167/167/167
f 168/168/168 167/167/167 169/169/169
f 170/170/170 169/169/169 167/167/167
f 173/173/173 172/172/172 171/171/171
f 174/174/174 171/171/171 172/172/172
f 177/177/177 176/176/176 175/175/175
f 178/178/178 175/175/175 176/176/176
f 177/177/177 175/175/175 179/179/179
f 180/180/180 179/179/179 175/175/175
f 179/179/179 180/180/180 181/181/181
f 182/182/182 181/181/181 180/180/180
f 182/182/182 183/183/183 181/181/181
f 184/184/184 181/181/181 183/183/183
f 176/176/176 185/185/185 178/178/178
f 186/186/186 178/178/178 185/185/185
f 186/186/186 185/185/185 187/187/187
f 188/188/188 187/187/187 185/185/185
f 187/187/187 188/188/188 189/189/189
f 190/190/190 189/189/189 188/188/188
f 190/190/190 191/191/191 189/189/189
f 192/192/192 189/189/189 191/191/191
f 195/195/195 194/194/194 193/193/193
f 196/196/196 193/193/193 194/194/194
f 199/199/199 198/198/198 197/197/197
f 200/200/200 197/197/197 198/198/198
f 200/200/200 201/201/201 197/197/197
f 202/202/202 197/197/197 201/201/201
f 198/198/198 203/203/203 200/200/200
f 204/204/204 200/200/200 203/203/203
f 200/200/200 204/204/204 201/201/201
f 205/205/205 201/201/201 204/204/204
f 204/204/204 203/203/203 206/206/206
f 204/204/204 206/206/206 205/205/205
f 207/207/207 206/206/206 203/203/203
f 208/208/208 205/205/205 206/206/206
f 199/199/199 197/197/197 209/209/209
f 210/210/210 209/209/209 197/197/197
f 202/202/202 211/211/211 197/197/197
f 210/210/210 197/197/197 211/211/211
f 214/214/214 213/213/213 212/212/212
f 215/215/215 212/212/212 213/213/213
f 213/213/213 214/214/214 216/216/216
f 217/217/217 216/216/216 214/214/214
f 212/212/212 218/218/218 214/214/214
f 219/219/219 214/214/214 218/218/218
f 214/214/214 219/219/219 217/217/217
f 220/220/220 217/217/217 219/219/219
f 218/218/218 221/221/221 219/219/219
f 222/222/222 219/219/219 221/221/221
f 220/220/220 219/219/219 223/223/223
f 222/222/222 223/223/223 219/219/219
f 213/213/213 224/224/224 215/215/215
f 213/213/213 216/216/216 224/224/224
f 225/225/225 215/215/215 224/224/224
f 226/226/226 224/224/224 216/216/216
